<svg xmlns="http://www.w3.org/2000/svg" width="48"  height="26.004" viewBox="0 0 48 26.004">
    <g id="Group_56" data-name="Group 56" transform="translate(-850 -212.745)" opacity="0.7">
    <path id="Icon_ionic-ios-share-alt" data-name="Icon ionic-ios-share-alt" d="M17.885,11.475,12.924,6.834a.254.254,0,0,0-.2-.084c-.155.007-.352.116-.352.281V9.358a.15.15,0,0,1-.127.144c-4.932.756-7.01,4.447-7.745,8.279-.028.151.176.292.271.172a8.966,8.966,0,0,1,7.453-3.776.174.174,0,0,1,.148.169v2.285a.3.3,0,0,0,.51.186l5-4.721A.388.388,0,0,0,18,11.8.471.471,0,0,0,17.885,11.475Z" transform="translate(878.996 205.995)" fill="#8f8f8f"/>
    <text id="Share" transform="translate(850 233.748)" fill="#8f8f8f" fontSize="18" font-family="SegoeUI-Bold, Segoe UI" font-weight="700"><tspan x="0" y="0">Share</tspan></text>
    </g>
</svg>