<svg xmlns="http://www.w3.org/2000/svg" width="177.294" height="81.447" viewBox="0 0 177.294 81.447">
  <g id="Group_15" data-name="Group 15" transform="translate(-221.476 -158.873)">
    <path id="Icon_feather-heart" data-name="Icon feather-heart" d="M60.914,5.089a17.367,17.367,0,0,0-24.566,0L33,8.436,29.654,5.089A17.371,17.371,0,1,0,5.088,29.655L8.435,33,33,57.568,57.567,33l3.347-3.347a17.367,17.367,0,0,0,0-24.566Z" transform="matrix(0.951, -0.309, 0.309, 0.951, 224.626, 182.419)" fill="none" stroke="red" stroke-linecap="round" stroke-linejoin="round" stroke-width="5"/>
    <g id="Icon_ionic-md-paw" data-name="Icon ionic-md-paw" transform="translate(267.094 177.852) rotate(8)">
      <path id="Path_1" data-name="Path 1" d="M11.019,2.723A4.492,4.492,0,0,0,8.462.288,4.863,4.863,0,0,0,6.823,0C4.421,0,1.985,1.849.746,4.605-.782,8.026.1,11.359,2.8,12.388a4.975,4.975,0,0,0,1.727.31A7.283,7.283,0,0,0,10.72,8.48,6.9,6.9,0,0,0,11.019,2.723Z" transform="translate(37.834 10.329)" fill="#ff9100"/>
      <path id="Path_2" data-name="Path 2" d="M10.777,4.605C9.548,1.849,7.1,0,4.7,0A4.815,4.815,0,0,0,3.061.288,4.525,4.525,0,0,0,.5,2.723,6.793,6.793,0,0,0,.8,8.469a7.283,7.283,0,0,0,6.189,4.218,4.774,4.774,0,0,0,1.727-.31C11.419,11.37,12.3,8.026,10.777,4.605Z" transform="translate(0 10.318)" fill="#ff9100"/>
      <path id="Path_3" data-name="Path 3" d="M6.783,14.547a4.442,4.442,0,0,0,.664-.022,5.284,5.284,0,0,0,3.388-1.583c1.483-1.506,1.893-3.864,1.583-6.288C11.942,2.923,9.562.122,6.351,0c0,0-.454,0-.686.022a5.774,5.774,0,0,0-3.709,1.76A7.222,7.222,0,0,0,.063,7.738C.539,11.436,3.484,14.425,6.783,14.547Z" transform="translate(10.246 0)" fill="#ff9100"/>
      <path id="Path_4" data-name="Path 4" d="M17,0C8.506,0,0,10.75,0,19.518A6.654,6.654,0,0,0,2.88,25.1a9.183,9.183,0,0,0,5.577,1.483,7.331,7.331,0,0,0,3.444-.675,11.075,11.075,0,0,1,4.891-1.151h.429a11.228,11.228,0,0,1,4.891,1.151,7.473,7.473,0,0,0,3.444.675A9.135,9.135,0,0,0,31.133,25.1a6.684,6.684,0,0,0,2.88-5.58C34,10.739,25.495,0,17,0Z" transform="translate(7.677 19.485)" fill="#ff9100"/>
      <path id="Path_5" data-name="Path 5" d="M5.068,14.492c.221.022.443.022.664.022,3.3-.122,6.255-3.1,6.731-6.809A7.187,7.187,0,0,0,10.57,1.749,5.652,5.652,0,0,0,6.905.022C6.673,0,6.164,0,6.164,0,2.964.122.584,2.889.1,6.631c-.31,2.425.1,4.794,1.583,6.288A5.435,5.435,0,0,0,5.068,14.492Z" transform="translate(26.61 0.022)" fill="#ff9100"/>
    </g>
    <text id="Love_My_Pet" data-name="Love My Pet" transform="translate(311.771 219.555)" fill="#8f8f8f" font-size="15" font-family="SegoeUI-Bold, Segoe UI" font-weight="700"><tspan x="0" y="0">Love My Pet</tspan></text>
  </g>
</svg>
