<svg xmlns="http://www.w3.org/2000/svg" width="33.733" height="30.8" viewBox="0 0 33.733 30.8">
    <path id="Icon_material-add-a-photo" data-name="Icon material-add-a-photo" d="M4.4,5.9V1.5H7.333V5.9h4.4V8.833h-4.4v4.4H4.4v-4.4H0V5.9Zm4.4,8.8V10.3h4.4V5.9H23.467l2.684,2.933H30.8a2.942,2.942,0,0,1,2.933,2.933v17.6A2.942,2.942,0,0,1,30.8,32.3H7.333A2.942,2.942,0,0,1,4.4,29.367V14.7ZM19.067,27.9a7.333,7.333,0,1,0-7.333-7.333A7.336,7.336,0,0,0,19.067,27.9Zm-4.693-7.333a4.693,4.693,0,1,0,4.693-4.693A4.688,4.688,0,0,0,14.373,20.567Z" transform="translate(0 -1.5)" fill="#ff9100" />
</svg>