<svg xmlns="http://www.w3.org/2000/svg" width="38.5" height="30.8" viewBox="0 0 38.5 30.8">
    <path id="Icon_awesome-photo-video" data-name="Icon awesome-photo-video" d="M36.575,0H9.625A1.925,1.925,0,0,0,7.7,1.925V7.7h9.625V3.85h11.55V23.1h7.7A1.925,1.925,0,0,0,38.5,21.175V1.925A1.925,1.925,0,0,0,36.575,0ZM13.956,6.2a.541.541,0,0,1-.541.541h-1.8a.541.541,0,0,1-.541-.541v-1.8a.541.541,0,0,1,.541-.541h1.8a.541.541,0,0,1,.541.541ZM35.131,18.709a.541.541,0,0,1-.541.541h-1.8a.541.541,0,0,1-.541-.541V16.9a.541.541,0,0,1,.541-.541h1.8a.541.541,0,0,1,.541.541Zm0-6.256a.541.541,0,0,1-.541.541h-1.8a.541.541,0,0,1-.541-.541v-1.8a.541.541,0,0,1,.541-.541h1.8a.541.541,0,0,1,.541.541Zm0-6.256a.541.541,0,0,1-.541.541h-1.8a.541.541,0,0,1-.541-.541v-1.8a.541.541,0,0,1,.541-.541h1.8a.541.541,0,0,1,.541.541ZM25.025,9.625H1.925A1.925,1.925,0,0,0,0,11.55V28.875A1.925,1.925,0,0,0,1.925,30.8h23.1a1.925,1.925,0,0,0,1.925-1.925V11.55A1.925,1.925,0,0,0,25.025,9.625Zm-19.25,3.85A1.925,1.925,0,1,1,3.85,15.4a1.925,1.925,0,0,1,1.925-1.925ZM23.1,26.95H3.85V25.025l3.85-3.85L9.625,23.1l7.7-7.7L23.1,21.175Z" fill="#ff9100" />
</svg>