<svg xmlns="http://www.w3.org/2000/svg" xmlns:xlink="http://www.w3.org/1999/xlink" width="61" height="61" viewBox="0 0 61 61">
  <defs>
    <filter id="Icon_ionic-ios-arrow-dropleft-circle" x="0" y="0" width="61" height="61" filterUnits="userSpaceOnUse">
      <feOffset dx="3" dy="3" input="SourceAlpha"/>
      <feGaussianBlur stdDeviation="3" result="blur"/>
      <feFlood flood-opacity="0.161"/>
      <feComposite operator="in" in2="blur"/>
      <feComposite in="SourceGraphic"/>
    </filter>
  </defs>
  <g transform="matrix(1, 0, 0, 1, 0, 0)" filter="url(#Icon_ionic-ios-arrow-dropleft-circle)">
    <path id="Icon_ionic-ios-arrow-dropleft-circle-2" data-name="Icon ionic-ios-arrow-dropleft-circle" d="M24.875,3.375a21.5,21.5,0,1,0,21.5,21.5A21.5,21.5,0,0,0,24.875,3.375Zm4.486,29.883a2,2,0,0,1,0,2.822,1.971,1.971,0,0,1-1.406.579,2.005,2.005,0,0,1-1.416-.589l-9.716-9.747a1.993,1.993,0,0,1,.062-2.75l9.861-9.892A2,2,0,0,1,29.568,16.5L21.1,24.875Z" transform="translate(2.63 2.63)" fill="#8f8f8f"/>
  </g>
</svg>
