<svg xmlns="http://www.w3.org/2000/svg" width="1900" height="938" viewBox="0 0 1920 938">
  <g id="Rectangle_12" data-name="Rectangle 12" stroke="#707070" stroke-width="1">
    <rect width="100%" height="938" stroke="none"/>
    <!-- <rect x="0.5" y="0.5" width="1919" height="937" fill="none"/> -->
  </g>
  <text id="from_Mfaang.com_import_opportunities_def_this_Mfaang.com.opportunities_for_i_in_opportunities:_if_self.status_single_proceed_i_to_sign_up_log_in_self.map_this_else:_stay_away_return_live_happily_ever_after_for_" data-name="from Mfaang.com import opportunities

def this = Mfaang.com.opportunities
for i in opportunities:
   if self.status = single
      proceed i to sign up | log in
      self.map (this)

   else: 
      stay away 
return 
     live happily ever after
 
# for " transform="translate(278 63)" fill="#fc46aa" font-size="43" font-family="SegoeUI, Segoe UI"><tspan x="0" y="46">from</tspan><tspan y="46" fill="#707070"> </tspan><tspan y="46" fill="#f8f8f8">Mfaang.com</tspan><tspan y="46" fill="#707070"> </tspan><tspan y="46">import</tspan><tspan y="46" fill="#707070"> </tspan><tspan y="46" fill="#f8f8f8">opportunities</tspan><tspan fill="#707070"><tspan x="0" y="103"></tspan></tspan><tspan fill="#4081ec"><tspan x="0" y="160">def</tspan><tspan y="160" fill="#707070"> </tspan><tspan y="160" fill="#f79400">this</tspan><tspan y="160" xml:space="preserve" fill="#707070"> = </tspan><tspan y="160" fill="#f8f8f8">Mfaang.com.opportunities</tspan></tspan><tspan x="0" y="217">for</tspan><tspan y="217" fill="#707070"> </tspan><tspan y="217" fill="#f8f8f8">i</tspan><tspan y="217" fill="#707070"> </tspan><tspan y="217">in</tspan><tspan y="217" fill="#707070"> </tspan><tspan y="217" fill="#f8f8f8">opportunities:</tspan><tspan fill="#707070"><tspan x="0" y="274" xml:space="preserve">   </tspan><tspan y="274" fill="#fc46aa">if</tspan><tspan y="274"> </tspan><tspan y="274" fill="#f8f8f8">self.status = single</tspan><tspan x="0" y="331" xml:space="preserve">      </tspan><tspan y="331" fill="#f8f8f8">proceed i to sign up | log in</tspan><tspan x="0" y="388" xml:space="preserve">     </tspan><tspan y="388" xml:space="preserve" fill="#fff"> self.</tspan><tspan y="388" fill="#f8f8f8">map</tspan><tspan y="388"> </tspan><tspan y="388" fill="#01a6f0">(</tspan><tspan y="388" fill="#f79400">this</tspan><tspan y="388" fill="#01a6f0">)</tspan><tspan x="0" y="445"></tspan><tspan x="0" y="502" xml:space="preserve">   </tspan><tspan y="502" fill="#fc46aa">else</tspan><tspan y="502">: </tspan><tspan x="0" y="559" xml:space="preserve">      </tspan><tspan y="559" fill="#f8f8f8">stay away</tspan><tspan y="559"> </tspan></tspan><tspan x="0" y="616">return</tspan><tspan y="616" fill="#707070"> </tspan><tspan fill="#707070"><tspan x="0" y="673" xml:space="preserve">     </tspan><tspan y="673" fill="#f8f8f8">live happily ever after</tspan></tspan><tspan fill="#f8f8f8"><tspan x="0" y="730"> </tspan></tspan><tspan fill="#0e9b09"><tspan x="0" y="787"># for Visual Studio Code - my love </tspan></tspan></text>
  <text id="_1_2_3_4_5_6_7_8_9_10_11_12_13_14" data-name="1
2
3
4
5
6
7
8
9
10
11
12
13
14" transform="translate(158 63)" fill="#707070" font-size="43" font-family="SegoeUI, Segoe UI"><tspan x="41.82" y="46">1</tspan><tspan x="41.82" y="103">2</tspan><tspan x="41.82" y="160">3</tspan><tspan x="41.82" y="217">4</tspan><tspan x="41.82" y="274">5</tspan><tspan x="41.82" y="331">6</tspan><tspan x="41.82" y="388">7</tspan><tspan x="41.82" y="445">8</tspan><tspan x="41.82" y="502">9</tspan><tspan x="18.641" y="559">10</tspan><tspan x="18.641" y="616">11</tspan><tspan x="18.641" y="673">12</tspan><tspan x="18.641" y="730">13</tspan><tspan x="18.641" y="787">14</tspan></text>
</svg>
